# xmcd CD database file
#
# Track frame offsets:
#	150
#	19062
#	35347
#	50405
#	87505
#	104620
#	130822
#	146125
#	178415
#
# Disc length: 3432 seconds
#
# Revision: 0
# Processed by: cddbd v1.5.1PL0 Copyright (c) Steve Scherf et al.
# Submitted via: CDex 1.51
#
DISCID=810d6609
DTITLE=Terry Brooks and Strange - To Earth With Love
DYEAR=1900
DGENRE=Blues
TTITLE0=Bottom Line
TTITLE1=Woman
TTITLE2=Mister Strange
TTITLE3=It´s a Beautiful Day
TTITLE4=I Promise you my Love
TTITLE5=Midnight Angel
TTITLE6=You´re All I Need
TTITLE7=Down and Dirty Blues
TTITLE8=You will be Loved (Live)
EXTD=
EXTT0=
EXTT1=
EXTT2=
EXTT3=
EXTT4=
EXTT5=
EXTT6=
EXTT7=
EXTT8=
PLAYORDER=
